<?xml version="1.0" encoding="utf-8"?>
<!-- Generator: Adobe Illustrator 22.0.1, SVG Export Plug-In . SVG Version: 6.00 Build 0)  -->
<svg version="1.1" id="Camada_1" xmlns="http://www.w3.org/2000/svg" xmlns:xlink="http://www.w3.org/1999/xlink" x="0px" y="0px"
	 viewBox="0 0 500 483.3" style="enable-background:new 0 0 500 483.3;" xml:space="preserve">
<g>
	<path d="M256.3,9.7l71.8,168.1c1,2.4,3.4,4,6.1,4l154.5,0.7c6.3,0,9,8,4,11.9l-121.1,94.5c-2,1.6-2.9,4.1-2.4,6.6l36.7,173.2
		c1.3,5.9-5.4,10.3-10.3,6.8L255.1,374.5c-2.3-1.6-5.4-1.7-7.7,0l-142.5,101c-4.9,3.5-11.6-0.9-10.3-6.8l36.7-173.3
		c0.5-2.5-0.4-5-2.4-6.6L7.7,194.3c-5-3.9-2.2-11.8,4-11.9l154.5-0.7c2.6,0,5-1.6,6.1-4L244.1,9.7C246.4,4.3,254,4.3,256.3,9.7z"/>
</g>
</svg>
